<?xml version="1.0" standalone="no"?>
<!DOCTYPE svg PUBLIC "-//W3C//DTD SVG 20010904//EN"
 "http://www.w3.org/TR/2001/REC-SVG-20010904/DTD/svg10.dtd">
<svg version="1.0" xmlns="http://www.w3.org/2000/svg"
 width="100.000000pt" height="100.000000pt" viewBox="0 0 100.000000 100.000000"
 preserveAspectRatio="xMidYMid meet">
<metadata>
Created by potrace 1.11, written by Peter Selinger 2001-2013
</metadata>
<g transform="translate(0.000000,100.000000) scale(0.100000,-0.100000)"
fill="#000000" stroke="none">
<path d="M373 985 c-207 -58 -355 -238 -370 -450 -11 -148 37 -275 146 -384
198 -201 502 -202 702 -2 107 108 156 235 146 385 -12 196 -131 356 -320 433
-79 32 -225 41 -304 18z m97 -20 c15 -18 6 -45 -15 -45 -18 0 -20 16 -2 23 9
4 8 8 -3 16 -10 7 -19 6 -31 -5 -8 -8 -18 -11 -22 -8 -10 10 -59 -5 -52 -16 4
-6 -7 -10 -24 -10 -16 0 -41 -4 -55 -10 -37 -14 -103 -77 -110 -105 -4 -14
-13 -25 -21 -25 -9 0 -18 -13 -21 -30 -4 -16 -12 -30 -19 -30 -17 0 -25 -23
-15 -41 7 -11 10 -10 16 4 3 9 10 14 15 11 5 -3 5 -14 -1 -25 -9 -15 -15 -17
-30 -9 -11 6 -20 17 -20 24 0 30 47 103 102 158 62 62 128 100 211 123 68 18
82 18 97 0z m40 5 c0 -5 -2 -10 -4 -10 -3 0 -8 5 -11 10 -3 6 -1 10 4 10 6 0
11 -4 11 -10z m113 -5 c73 -19 141 -54 194 -99 48 -42 123 -149 123 -177 0
-19 -33 -43 -44 -32 -12 12 -6 34 8 31 8 -2 15 0 15 5 2 22 0 27 -14 27 -9 0
-15 6 -14 13 3 20 -12 47 -27 47 -8 0 -14 7 -14 15 0 29 -80 104 -124 116 -22
6 -53 18 -69 26 -15 8 -35 13 -46 11 -10 -2 -24 2 -32 9 -10 8 -20 9 -29 2
-13 -8 -13 -10 0 -18 18 -12 8 -24 -14 -15 -21 8 -21 30 2 43 22 13 18 13 85
-4z m-175 -58 c12 0 22 -4 22 -8 0 -4 3 -16 7 -26 6 -15 4 -16 -9 -5 -9 7 -33
22 -54 32 -26 14 -31 18 -14 15 14 -3 35 -7 48 -8z m138 -7 c-21 -11 -44 -24
-52 -31 -10 -8 -14 -8 -14 0 0 6 4 11 10 11 5 0 7 6 4 14 -4 11 4 16 33 19 21
2 43 4 48 5 6 1 -7 -7 -29 -18z m-236 -7 c0 -3 -9 -16 -20 -30 -11 -14 -20
-32 -20 -39 0 -8 -5 -14 -11 -14 -6 0 -8 9 -4 20 5 15 2 20 -12 20 -10 0 -25
5 -33 10 -12 7 -8 12 16 22 32 13 84 20 84 11z m402 -19 c25 -13 78 -78 78
-97 0 -4 -17 -5 -37 -1 -21 4 -44 7 -50 7 -7 0 -13 4 -13 9 0 4 8 8 18 8 14 0
19 8 19 31 0 26 -3 30 -21 25 -12 -3 -26 -6 -32 -6 -7 0 -9 -11 -6 -27 6 -34
3 -31 -32 31 l-28 49 38 -8 c21 -3 51 -13 66 -21z m-331 -7 c19 -12 45 -39 58
-60 l24 -37 14 28 c21 40 52 70 84 81 28 10 29 9 29 -21 0 -23 -4 -29 -15 -24
-18 7 -66 -10 -77 -27 -13 -21 -9 -27 20 -27 15 0 35 -9 45 -20 9 -11 23 -17
32 -14 17 7 20 30 5 39 -15 9 -2 25 15 18 23 -8 18 -48 -7 -60 -47 -23 -58
-23 -58 -3 0 31 -15 31 -29 -1 l-13 -30 -22 20 c-20 19 -24 20 -44 5 -18 -12
-26 -13 -37 -4 -8 7 -15 19 -15 27 0 8 -5 11 -11 8 -6 -4 -8 -13 -5 -21 8 -20
-43 -18 -66 3 -21 19 -24 49 -4 56 20 8 28 -4 14 -20 -9 -11 -8 -18 4 -30 15
-14 18 -13 34 6 11 12 30 21 46 21 59 0 23 51 -37 53 -32 1 -35 3 -33 29 3 34
6 34 49 5z m-185 -43 c-5 -19 -2 -24 14 -24 11 0 20 -5 20 -11 0 -6 -6 -9 -12
-6 -7 2 -30 -2 -51 -9 -37 -13 -38 -13 -31 9 19 61 74 99 60 41z m72 -86 c13
-13 16 -47 6 -71 -3 -9 -13 -13 -27 -9 -22 5 -22 5 2 -21 26 -29 27 -29 -7
-46 -18 -10 -20 -15 -12 -31 16 -29 12 -36 -22 -47 -32 -10 -32 -11 -11 -19
l23 -9 -20 -33 c-20 -33 -47 -41 -68 -20 -16 16 -15 28 3 28 8 0 15 -4 15 -10
0 -16 30 -12 36 5 4 8 1 21 -5 29 -6 7 -8 27 -5 43 3 17 2 33 -4 37 -16 9 -62
-41 -62 -68 0 -25 0 -25 -30 -8 l-31 17 30 27 c17 15 49 32 73 39 51 15 56 18
41 27 -22 15 -63 86 -63 112 0 24 3 26 29 22 27 -4 28 -6 18 -31 -11 -30 -3
-81 14 -81 5 0 15 12 22 28 7 15 19 28 27 30 23 5 31 17 24 35 -4 12 -13 15
-30 11 -19 -5 -23 -3 -18 10 7 19 35 21 52 4z m440 -7 c3 -10 -2 -12 -21 -7
-18 4 -27 1 -31 -11 -7 -18 1 -30 24 -35 8 -2 20 -15 27 -30 7 -16 16 -28 22
-28 16 0 29 53 19 79 -10 27 -6 34 22 38 33 5 25 -47 -15 -106 -31 -44 -33
-51 -16 -51 30 0 84 -26 109 -53 24 -25 24 -25 3 -32 -12 -3 -21 -12 -21 -18
-1 -7 -11 8 -23 32 -12 25 -32 48 -45 53 -23 8 -24 7 -17 -31 4 -24 2 -42 -4
-46 -16 -9 -13 -35 4 -42 9 -3 22 2 29 12 10 14 15 15 21 6 4 -8 1 -19 -8 -28
-20 -21 -54 -8 -72 27 -14 26 -13 28 7 34 26 6 21 15 -12 21 -32 6 -35 11 -22
40 10 21 9 26 -11 36 -32 17 -32 17 -6 46 l24 26 -23 -6 c-17 -4 -23 0 -28 20
-9 36 11 75 38 71 12 -2 23 -9 26 -17z m119 -13 c1 -13 5 -33 8 -45 4 -16 1
-23 -10 -23 -8 0 -15 -4 -15 -10 0 -5 -5 -10 -10 -10 -7 0 -7 6 0 19 5 11 11
33 12 48 3 45 13 58 15 21z m-462 -15 c31 -9 33 -30 3 -26 -23 3 -23 -10 1
-31 22 -20 35 -59 18 -53 -7 2 -22 19 -35 37 -22 33 -23 33 -29 12 -10 -41
-28 -18 -26 34 1 27 2 50 2 52 1 1 9 -2 19 -7 9 -5 31 -13 47 -18z m260 -29
c0 -29 -5 -49 -12 -51 -8 -3 -13 4 -13 19 0 20 -4 18 -40 -22 -44 -51 -53 -42
-15 14 30 44 30 46 8 43 -36 -5 -23 19 19 34 23 9 45 15 48 13 3 -1 5 -24 5
-50z m-148 35 c8 -8 8 -18 1 -35 -14 -30 -20 -30 -34 0 -16 35 8 60 33 35z
m-367 -20 c0 -11 5 -29 10 -40 7 -13 7 -19 0 -19 -5 0 -10 5 -10 10 0 6 -6 10
-13 10 -9 0 -12 10 -9 30 5 34 22 41 22 9z m-90 -39 c0 -5 -5 -10 -11 -10 -5
0 -7 5 -4 10 3 6 8 10 11 10 2 0 4 -4 4 -10z m416 -15 c3 -13 12 -29 19 -35
10 -9 16 -3 26 24 7 20 17 36 21 36 15 0 8 -43 -13 -87 -17 -36 -24 -42 -36
-32 -21 18 -35 48 -40 86 -5 39 13 46 23 8z m479 15 c3 -5 1 -10 -4 -10 -6 0
-11 5 -11 10 0 6 2 10 4 10 3 0 8 -4 11 -10z m-875 -40 c13 -8 12 -12 -4 -27
-18 -17 -18 -17 -13 0 4 11 1 17 -8 17 -10 0 -15 -10 -15 -32 1 -38 1 -52 0
-129 -1 -62 19 -121 52 -157 12 -12 23 -30 24 -40 2 -9 14 -26 28 -37 15 -12
26 -26 26 -32 0 -13 25 -24 34 -16 3 4 1 12 -5 20 -9 10 -8 13 4 13 20 0 29
-14 21 -34 -10 -25 -37 -19 -74 17 -84 81 -132 203 -129 327 3 110 17 137 59
110z m890 -16 c12 -30 13 -147 3 -195 -8 -32 -8 -31 -13 21 -3 30 -2 66 3 79
4 14 4 28 -2 34 -5 5 -7 23 -4 38 4 22 2 29 -10 29 -11 0 -14 -5 -10 -17 6
-16 5 -16 -10 -5 -20 17 -11 42 14 42 12 0 23 -10 29 -26z m-820 -3 c0 -3 -14
-15 -30 -26 -16 -11 -30 -23 -30 -27 0 -5 -4 -8 -9 -8 -5 0 -1 15 8 34 11 23
23 33 39 33 12 0 22 -2 22 -6z m761 -28 c9 -18 15 -33 14 -33 -1 0 -15 11 -31
25 -16 14 -32 25 -36 25 -5 0 -8 4 -8 9 0 5 10 8 23 7 15 0 28 -12 38 -33z
m-564 -2 c10 -16 9 -20 -13 -24 -31 -5 -52 17 -34 37 14 18 31 13 47 -13z m62
15 c15 -8 36 -27 45 -41 16 -25 16 -26 -9 -35 -30 -11 -66 -13 -89 -4 -28 11
-17 24 19 24 42 0 43 5 8 42 -29 31 -18 36 26 14z m208 -14 c-35 -37 -34 -42
8 -42 36 0 47 -13 19 -24 -23 -9 -59 -7 -89 4 -24 9 -25 11 -11 31 18 26 66
59 85 59 10 0 6 -10 -12 -28z m93 0 c0 -17 -22 -29 -45 -24 -24 4 -24 5 -7 27
13 17 21 21 35 14 9 -6 17 -13 17 -17z m-397 -69 c4 -3 2 -12 -5 -20 -16 -19
-5 -25 26 -13 34 13 69 13 61 0 -3 -5 -24 -15 -46 -22 -35 -10 -39 -14 -25
-23 18 -13 22 -35 6 -35 -7 0 -70 26 -88 36 -6 3 50 84 58 84 4 0 10 -3 13 -7z
m421 -34 c15 -22 27 -42 25 -44 -7 -6 -81 -35 -90 -35 -5 0 -9 7 -9 15 0 8 7
15 15 15 25 0 17 17 -12 25 -14 3 -36 13 -47 21 -20 14 -20 14 7 14 16 0 37
-5 49 -11 24 -13 35 -5 20 14 -11 13 -7 27 7 27 3 0 19 -19 35 -41z m-597 -49
c16 -10 15 -11 -6 -6 -16 3 -29 -2 -41 -17 l-17 -21 -7 21 c-7 22 -2 65 9 84
5 6 14 -1 25 -19 10 -17 27 -35 37 -42z m467 23 c37 -37 32 -46 -11 -23 -42
22 -50 15 -34 -30 5 -17 6 -30 1 -30 -19 0 -40 46 -40 87 l0 42 29 -10 c17 -6
41 -22 55 -36z m333 -47 c-6 -15 -37 -12 -35 2 3 26 -3 35 -14 24 -7 -7 -17
-12 -24 -12 -6 0 5 18 25 41 l36 40 9 -40 c5 -22 6 -47 3 -55z m-456 74 c1 -5
2 -17 2 -25 0 -34 -4 -44 -23 -66 l-20 -24 5 43 6 43 -40 -21 c-50 -25 -53
-12 -6 29 35 30 74 41 76 21z m-183 -90 c3 0 1 -5 -6 -12 -19 -19 -14 -30 7
-18 27 14 52 13 50 -2 -4 -34 1 -40 32 -36 30 5 31 4 27 -29 -4 -35 5 -43 20
-17 7 13 13 11 35 -16 15 -17 27 -35 27 -40 0 -11 -29 -40 -40 -40 -20 0 -20
22 -1 27 23 6 27 23 9 41 -8 8 -17 8 -30 1 -13 -7 -24 -6 -40 6 -31 21 -38 19
-38 -9 0 -15 12 -34 30 -50 l31 -25 -20 -20 -21 -21 -16 32 c-9 18 -16 54 -15
84 l0 54 -36 -15 c-37 -16 -119 -20 -126 -7 -2 4 2 17 8 30 l12 22 26 -20 c27
-21 53 -25 75 -11 11 6 8 13 -13 29 -15 12 -24 25 -21 31 10 16 -5 41 -25 41
-12 0 -19 -7 -19 -20 0 -21 -15 -27 -25 -9 -4 5 1 19 10 29 16 18 20 18 52 5
20 -8 38 -15 41 -15z m504 6 c13 -19 9 -36 -8 -36 -10 0 -14 5 -10 15 8 21
-20 31 -40 15 -8 -7 -12 -19 -10 -27 3 -8 -6 -25 -22 -38 l-27 -23 27 -7 c20
-5 38 -1 62 13 l34 20 10 -24 c7 -15 8 -25 2 -29 -19 -12 -85 -7 -122 9 l-37
16 1 -49 c1 -46 -17 -111 -31 -111 -3 0 -14 7 -25 15 -18 13 -17 15 13 40 19
17 31 36 31 51 0 27 -3 29 -33 12 -12 -7 -35 -13 -52 -13 -20 0 -31 -6 -33
-17 -2 -13 3 -18 17 -18 25 0 28 -18 5 -27 -17 -6 -34 12 -34 38 0 9 10 29 22
44 18 23 22 25 30 11 14 -26 25 -18 20 14 -4 28 -2 30 27 30 28 0 36 8 32 33
-2 14 27 19 49 7 19 -10 20 -9 15 12 -5 19 -1 26 22 34 30 11 53 7 65 -10z
m-291 -13 c1 -16 1 -36 0 -45 -3 -21 10 -23 27 -6 17 17 29 0 14 -20 -7 -9
-20 -29 -31 -44 l-18 -28 -33 41 c-25 32 -30 43 -20 52 10 9 14 9 17 0 7 -19
25 -15 22 5 -3 38 2 72 11 72 6 0 11 -12 11 -27z m-100 -10 c-5 -18 -14 -28
-27 -28 -25 0 -25 27 1 42 30 18 34 16 26 -14z m212 13 c10 -8 15 -20 11 -30
-10 -26 -39 -15 -42 17 -4 30 4 33 31 13z m-472 -47 c-3 -47 -4 -49 -23 -37
-24 16 -54 65 -45 74 3 4 14 1 23 -7 15 -12 18 -11 28 4 17 27 21 20 17 -34z
m713 35 c3 -8 10 -12 16 -9 5 3 19 8 30 10 18 3 19 1 9 -18 -14 -27 -50 -67
-60 -67 -4 0 -9 23 -11 50 -3 49 4 65 16 34z m66 -72 c-38 -72 -101 -142 -128
-142 -20 0 -36 25 -26 41 7 12 34 11 34 -1 0 -5 -5 -10 -11 -10 -5 0 -7 -5 -4
-10 4 -7 13 -7 26 0 11 6 17 15 14 19 -2 5 6 16 20 25 14 9 25 23 25 31 0 7
14 29 30 47 17 18 34 44 37 58 4 14 8 19 10 13 3 -7 -10 -39 -27 -71z m-660
-64 c0 -5 -7 -8 -16 -8 -8 0 -12 -4 -9 -10 3 -5 3 -10 0 -10 -8 0 -65 30 -65
34 0 2 20 3 45 2 25 0 45 -4 45 -8z m530 -8 c-23 -12 -37 -14 -41 -8 -4 6 -12
7 -18 4 -10 -7 -16 6 -7 15 3 2 26 5 52 5 l48 2 -34 -18z m-458 -99 c7 -9 -3
-2 -23 14 -19 17 -31 33 -27 36 5 3 8 10 7 15 -5 29 4 23 17 -10 8 -21 20 -46
26 -55z m362 67 c-4 -6 -2 -13 3 -17 5 -3 -5 -18 -23 -34 l-32 -27 19 37 c10
20 19 43 19 51 0 7 5 10 10 7 6 -4 7 -11 4 -17z m-420 -44 c9 -3 16 -11 16
-16 0 -6 -7 -8 -15 -5 -8 4 -17 2 -20 -2 -7 -13 23 -34 39 -28 8 3 17 -1 20
-9 3 -8 19 -14 36 -14 17 0 41 -7 53 -14 12 -8 41 -16 64 -17 23 -2 40 -6 38
-9 -8 -12 -132 9 -190 32 -62 25 -82 45 -72 72 7 18 9 19 31 10z m206 2 c0 -3
-8 -12 -17 -22 -16 -15 -16 -17 0 -29 9 -7 17 -18 17 -25 0 -15 -44 -6 -80 17
l-24 16 39 14 c22 7 44 18 49 23 11 11 16 13 16 6z m85 -29 l40 -14 -35 -22
c-38 -23 -70 -27 -70 -10 0 7 8 18 18 25 16 13 16 15 -1 25 -9 5 -15 15 -11
21 4 7 9 7 13 -1 4 -6 25 -17 46 -24z m173 5 c4 -26 -22 -44 -105 -71 -53 -18
-148 -30 -103 -14 8 3 31 12 50 21 19 8 45 15 58 16 13 1 27 8 31 15 5 8 14
10 20 6 14 -8 43 13 36 26 -3 4 -12 6 -20 2 -8 -3 -15 -1 -15 5 0 12 20 22 35
18 6 -1 11 -12 13 -24z m-518 8 c0 -5 -5 -10 -11 -10 -5 0 -7 5 -4 10 3 6 8
10 11 10 2 0 4 -4 4 -10z m555 0 c3 -5 1 -10 -4 -10 -6 0 -11 5 -11 10 0 6 2
10 4 10 3 0 8 -4 11 -10z"/>
</g>
</svg>
